<svg height="480pt" viewBox="0 0 480 480" width="480pt" xmlns="http://www.w3.org/2000/svg"><path d="m48 168v272h40v-96c0-17.671875 14.328125-32 32-32h48c17.671875 0 32 14.328125 32 32v96h232v-272zm352 208c0 17.671875-14.328125 32-32 32h-96c-17.671875 0-32-14.328125-32-32v-48c0-17.671875 14.328125-32 32-32h96c17.671875 0 32 14.328125 32 32zm0 0" fill="#a8dba8"/><path d="m432 184h-384v79.601562c1.324219.214844 2.660156.351563 4 .398438h24c17.671875 0 32-14.328125 32-32 0 17.671875 14.328125 32 32 32h24c17.671875 0 32-14.328125 32-32 0 17.671875 14.328125 32 32 32h24c17.671875 0 32-14.328125 32-32 0 17.671875 14.328125 32 32 32h24c17.671875 0 32-14.328125 32-32 0 17.671875 14.328125 32 32 32h24c1.339844-.046875 2.675781-.179688 4-.398438zm0 0" fill="#79bd9a"/><path d="m368 32h-256c-35.347656 0-64 28.652344-64 64v16h384v-16c0-35.347656-28.652344-64-64-64zm0 0" fill="#a8dba8"/><path d="m44 136c-9.222656.023438-17.980469 4.054688-24 11.039062v12.960938h440v-12.960938c-6.019531-6.988281-14.777344-11.015624-24-11.039062zm0 0" fill="#a8dba8"/><path d="m24 440c-8.835938 0-16 7.164062-16 16s7.164062 16 16 16h64v-32zm0 0" fill="#cff09e"/><path d="m456 440h-256v32h256c8.835938 0 16-7.164062 16-16s-7.164062-16-16-16zm0 0" fill="#cff09e"/><path d="m10.222656 448c-2.925781 4.929688-2.96875 11.050781-.117187 16.023438 2.851562 4.96875 8.164062 8.019531 13.894531 7.976562h64v-16h-64c-5.691406-.011719-10.945312-3.0625-13.777344-8zm0 0" fill="#a8dba8"/><path d="m456 456h-256v16h256c5.730469.035156 11.03125-3.015625 13.886719-7.984375 2.851562-4.964844 2.8125-11.085937-.101563-16.015625-2.835937 4.9375-8.089844 7.988281-13.785156 8zm0 0" fill="#a8dba8"/><path d="m120 456c-8.835938 0-16-7.164062-16-16v-123.535156c-9.863281 5.664062-15.960938 16.160156-16 27.535156v128h112v-16zm0 0" fill="#cff09e"/><path d="m120 48.023438h240c8.835938 0 16 7.164062 16 16 0 8.835937-7.164062 16-16 16h-240c-8.835938 0-16-7.164063-16-16 0-8.835938 7.164062-16 16-16zm0 0" fill="#cff09e"/><path d="m272 384c-4.417969 0-8-3.582031-8-8v-78.839844c-14.089844 3.613282-23.960938 16.292969-24 30.839844v48c0 17.671875 14.328125 32 32 32h96c14.558594-.023438 27.257812-9.894531 30.871094-24zm0 0" fill="#a8dba8"/><path d="m272 296h96c17.671875 0 32 14.328125 32 32v16h-160v-16c0-17.671875 14.328125-32 32-32zm0 0" fill="#a8dba8"/><path d="m272 296h16v48h-48v-16c0-17.671875 14.328125-32 32-32zm0 0" fill="#cff09e"/><path d="m352 296h16c17.671875 0 32 14.328125 32 32v16h-48zm0 0" fill="#cff09e"/><path d="m88 411.59375c-9.882812-5.679688-15.980469-16.199219-16-27.59375v-216h-24v272h40zm0 0" fill="#79bd9a"/><path d="m200 416.023438h232v24h-232zm0 0" fill="#79bd9a"/><path d="m20 160h88v48c0 17.671875-14.328125 32-32 32h-24c-17.671875 0-32-14.328125-32-32zm0 0" fill="#a8dba8"/><path d="m108 160h88v48c0 17.671875-14.328125 32-32 32h-24c-17.671875 0-32-14.328125-32-32zm0 0" fill="#cff09e"/><path d="m196 160h88v48c0 17.671875-14.328125 32-32 32h-24c-17.671875 0-32-14.328125-32-32zm0 0" fill="#a8dba8"/><path d="m284 160h88v48c0 17.671875-14.328125 32-32 32h-24c-17.671875 0-32-14.328125-32-32zm0 0" fill="#cff09e"/><path d="m372 160h88v48c0 17.671875-14.328125 32-32 32h-24c-17.671875 0-32-14.328125-32-32zm0 0" fill="#a8dba8"/><g fill="#3b8686"><path d="m456 432h-16v-186.015625c16.617188-5.199219 27.949219-20.570313 28-37.984375v-64c-.070312-17.394531-11.398438-32.738281-28-37.929688v-34.070312c-.042969-39.746094-32.253906-71.9570312-72-72h-256c-39.746094.046875-71.953125 32.253906-72 72v34.046875c-16.609375 5.195313-27.9375 20.550781-28 37.953125v64c.050781 17.414062 11.382812 32.78125 28 37.984375v186.015625h-16c-13.253906 0-24 10.746094-24 24s10.746094 24 24 24h432c13.253906 0 24-10.746094 24-24s-10.746094-24-24-24zm-4-224c0 13.253906-10.746094 24-24 24h-24c-13.253906 0-24-10.746094-24-24v-40h72zm-88 0c0 13.253906-10.746094 24-24 24h-24c-13.253906 0-24-10.746094-24-24v-40h72zm-88 0c0 13.253906-10.746094 24-24 24h-24c-13.253906 0-24-10.746094-24-24v-40h72zm-88 0c0 13.253906-10.746094 24-24 24h-24c-13.253906 0-24-10.746094-24-24v-40h72zm-132-136c.035156-30.914062 25.085938-55.964844 56-56h256c30.914062.035156 55.964844 25.085938 56 56v32h-368zm-28 72c0-13.253906 10.746094-24 24-24h376c13.253906 0 24 10.746094 24 24v8h-424zm0 64v-40h72v40c0 13.253906-10.746094 24-24 24h-24c-13.253906 0-24-10.746094-24-24zm28 40h20c12.640625-.03125 24.515625-6.058594 32-16.246094 7.484375 10.183594 19.359375 16.214844 32 16.246094h24c12.640625-.03125 24.515625-6.058594 32-16.246094 7.484375 10.183594 19.359375 16.214844 32 16.246094h24c12.640625-.03125 24.515625-6.058594 32-16.246094 7.484375 10.183594 19.359375 16.214844 32 16.246094h24c12.640625-.03125 24.515625-6.058594 32-16.246094 7.484375 10.183594 19.359375 16.214844 32 16.246094h20v184h-216v-88c-.027344-22.082031-17.917969-39.972656-40-40h-48c-22.082031.027344-39.972656 17.917969-40 40v88h-24zm24 216h-56c-4.417969 0-8-3.582031-8-8s3.582031-8 8-8h56zm112 0h-96v-120c0-13.253906 10.746094-24 24-24h48c13.253906 0 24 10.746094 24 24v56h-24c-4.417969 0-8 3.582031-8 8s3.582031 8 8 8h24zm264 0h-248v-16h248c4.417969 0 8 3.582031 8 8s-3.582031 8-8 8zm0 0"/><path d="m360 40h-240c-13.253906 0-24 10.746094-24 24s10.746094 24 24 24h240c13.253906 0 24-10.746094 24-24s-10.746094-24-24-24zm0 32h-240c-4.417969 0-8-3.582031-8-8s3.582031-8 8-8h240c4.417969 0 8 3.582031 8 8s-3.582031 8-8 8zm0 0"/><path d="m272 416h96c22.082031-.027344 39.972656-17.917969 40-40v-48c-.027344-22.082031-17.917969-39.972656-40-40h-96c-22.082031.027344-39.972656 17.917969-40 40v48c.027344 22.082031 17.917969 39.972656 40 40zm96-112c13.253906 0 24 10.746094 24 24v8h-32v-32zm-24 0v32h-48v-32zm-96 24c0-13.253906 10.746094-24 24-24h8v32h-32zm48 24h96v24c0 13.253906-10.746094 24-24 24h-96c-13.253906 0-24-10.746094-24-24v-24zm0 0"/></g></svg>